<?xml version="1.0" ?>
<svg id="Layer_1" style="enable-background:new 0 0 512 512;" version="1.1" viewBox="0 0 512 512" xml:space="preserve" 
    xmlns="http://www.w3.org/2000/svg" 
    xmlns:xlink="http://www.w3.org/1999/xlink">
    <g fill="white" stroke="white">
        <path d="M218.2,172.4v161.8l201.5,119.5c16.6,9.9,37.7-2.1,37.7-21.5V74.3c0-19.3-21-31.3-37.7-21.5L218.2,172.4z" id="XMLID_5_"/>
        <path d="M61.3,173.3c-23.1,0-41.9,18.8-41.9,41.9v76.1c0,23.1,18.8,41.9,41.9,41.9h142.2v-160H61.3z" id="XMLID_4_"/>
        <path d="M467.9,184.1v138.5c22.9-14.6,38.1-40.1,38.1-69.2S490.8,198.6,467.9,184.1z" id="XMLID_3_"/>
        <path d="M10.3,214.2c-2.4,0-4.3,1.9-4.3,4.3v73.9h33.5v-78.2H10.3z" id="XMLID_2_"/>
        <path d="M156.9,318c0,0-26.3,58.8,31.7,128.4c5.4,6.4,0.7,16.2-7.7,16.2h-62.1c-4.7,0-8.9-2.5-11.2-6.6   C96.2,435.2,65,368.8,94.1,308.5" id="XMLID_1_"/>
    </g>
</svg>